# xmcd CD database file generated by LOLA_Freedb v0.9beta0
# 
# Track frame offsets:
#      150
#      25374
#      47469
#      69960
#      103536
#      151422
#      207831
#      239504
#      312766
#      375616
#      399810
# 
# Disc length: 5541 seconds
# 
# Revision: 0 
# Processed by: cddbd v1.5.2PL0 Copyright (c) Steve Scherf et al.
# Submitted via: LOLA_Freedb v0.9beta0
# 
DISCID=8515a30b
DTITLE=Karthago - Live At The Roxy
DYEAR=1976
DGENRE=
TTITLE0=The World Is Like A Burning Fire
TTITLE1=Sound In The Air
TTITLE2=Rock 'n' Roll Testament
TTITLE3=We Gonna Keep It Together
TTITLE4=Thema In C
TTITLE5=The Secon String Rambler
TTITLE6=Wild River
TTITLE7=Highway Seeker (Did Nobody Tell You)
TTITLE8=We Give You Everything You Need
TTITLE9=Going Down
TTITLE10=See You Tomorrow In The Sky
EXTD=
EXTT0=
EXTT1=
EXTT2=
EXTT3=
EXTT4=
EXTT5=
EXTT6=
EXTT7=
EXTT8=
EXTT9=
EXTT10=
PLAYORDER=
